<svg xmlns="http://www.w3.org/2000/svg" xmlns:xlink="http://www.w3.org/1999/xlink" version="1.1" id="id_svgCanvas" x="0px" y="0px" viewBox="0 0 32 32" style="enable-background:new 0 0 32 32;" xml:space="preserve" preserveAspectRatio="true">
<path class="stshockcolor" style="fill:#AAAAAA;" d="M27,8.5H5c-1.4,0-1.5,1.3-1.5,1.5v15  c0,1.4,1.3,1.5,1.5,1.5h22c1.4,0,1.5-1.3,1.5-1.5V10C28.5,8.6,27.3,8.5,27,8.5z"></path>
<rect x="5" y="18" style="opacity:0.2;fill:#FFFFFF;enable-background:new    ;" width="12" height="7"></rect>
<path style="opacity:0.4;fill:#4D5152;enable-background:new    ;" d="M22,24.5c-1.9,0-3.5-1.6-3.5-3.5s1.6-3.5,3.5-3.5  s3.5,1.6,3.5,3.5S23.9,24.5,22,24.5z"></path>
<rect x="6.5" y="10.5" style="fill:#FFFFFF;" width="19" height="5"></rect>
<path style="fill:#4D5152;" d="M27,8h-0.4L10,4.3C9.9,3.6,9.3,3,8.5,3C7.7,3,7,3.7,7,4.5S7.7,6,8.5,6c0.5,0,1-0.3,1.3-0.7L21.9,8H5  c-2,0-2,2-2,2v15c0,2,2,2,2,2s20,0,22,0s2-2,2-2V10C29,8,27,8,27,8z M28,25c0,0.5-0.2,1-1,1H5c-0.5,0-1-0.2-1-1V10c0-0.5,0.2-1,1-1  h22c0.5,0,1,0.2,1,1V25z M6,10v6h20v-6H6z M25,15h-2v-3h-1v3H7v-4h1v1h1v-1h3v1h1v-1h3v1h1v-1h3v1h1v-1h4V15z M6,19v1h2v-1H6z   M10,19v1h2v-1H10z M14,19v1h2v-1H14z M6,21v1h2v-1H6z M10,21v1h2v-1H10z M14,21v1h2v-1H14z M6,23v1h2v-1H6z M10,23v1h2v-1H10z   M14,23v1h2v-1H14z"></path>
<path style="fill:#4D5152;" d="M22,17c-2.2,0-4,1.8-4,4s1.8,4,4,4s4-1.8,4-4S24.2,17,22,17z M22,24c-1.6,0-3-1.4-3-3s1.4-3,3-3  s3,1.4,3,3S23.6,24,22,24z"></path>
<rect x="22" y="12" style="fill:#EF6565;" width="1" height="4"></rect>
</svg>